<?xml version="1.0" ?><svg width="128" height="128" viewBox="0 0 128 128" xmlns="http://www.w3.org/2000/svg" xmlns:xlink="http://www.w3.org/1999/xlink"><svg viewBox="0 0 64 64" width="64" height="64" id="SUBWAY" xmlns="http://www.w3.org/2000/svg"><defs><style>.acls-1{fill:#758190}.acls-2{fill:#7fcdee}.acls-3{fill:#b2e1f5}.acls-4{fill:#bfbfbf}.acls-5{fill:#acb3bc}.acls-6{fill:#d9d9d9}.acls-7{fill:#606060}.acls-8{fill:none;stroke:#000;stroke-linejoin:round;stroke-width:2px}</style></defs><g data-name="Layer 6" id="aLayer_6"><path class="acls-1" d="M6 1h28v21H6z"/><path class="acls-2" d="M22 2h8v8h-8z"/><path class="acls-3" d="M22 7.926A6.717 6.717 0 0027.973 2H22z"/><path class="acls-2" d="M10 2h8v8h-8z"/><path class="acls-3" d="M10 7.926A6.717 6.717 0 0015.973 2H10z"/><path class="acls-1" d="M34 1h24v21H34z"/><path class="acls-4" d="M38 22v-5a3 3 0 013-3 3 3 0 013 3v5zM48 22v-5a3 3 0 013-3 3 3 0 013 3v5zM16 22v-4a4 4 0 014-4 4 4 0 014 4v4z"/><path class="acls-2" d="M34 3h24v7H34z"/><path class="acls-5" d="M4 58h6v4H4zM14 58h6v4h-6zM24 58h6v4h-6zM34 58h6v4h-6zM44 58h6v4h-6zM54 58h6v4h-6zM2 26h60v28H2z"/><path class="acls-4" d="M2 32h36.636A15.364 15.364 0 0149.5 36.5 15.364 15.364 0 0154 47.364V54H2z"/><path class="acls-6" d="M2 32v15.6a31.657 31.657 0 005 .4 30.17 30.17 0 0026.964-16z"/><path class="acls-2" d="M22 36h10v10H22z"/><path class="acls-3" d="M31.439 36H22v8.167A29.619 29.619 0 0031.439 36zM6 36h10v10H6z"/><path class="acls-2" d="M49.5 36.5A15.364 15.364 0 0038.636 32H38v10a4 4 0 004 4h11.932a15.355 15.355 0 00-4.432-9.5z"/><path class="acls-7" d="M2 50h52v4H2z"/><path class="acls-1" d="M2 54h60v4H2zM2 22h60v4H2z"/><path class="acls-8" d="M1 32h37.636A15.364 15.364 0 0149.5 36.5 15.364 15.364 0 0154 47.364V54M63 58H1M1 54h62M4 58v4h6v-4M14 58v4h6v-4M24 58v4h6v-4M34 58v4h6v-4M44 58v4h6v-4M54 58v4h6v-4M1 50h53"/><path class="acls-8" d="M54 46H42a4 4 0 01-4-4V32M6 36h10v10H6zM22 36h10v10H22zM63 26H1M1 22h62M6 22V1M34 22V1M10 2h8v8h-8zM22 2h8v8h-8zM16 22v-4a4 4 0 014-4 4 4 0 014 4v4M58 22V1M38 22v-5a3 3 0 013-3 3 3 0 013 3v5M48 22v-5a3 3 0 013-3 3 3 0 013 3v5M34 10h24M34 3h24M42 3v7M50 3v7M46 30h11M59 30h2M51 34h10"/></g></svg><svg viewBox="0 0 64 64" width="64" height="64" id="hotel" x="64" xmlns="http://www.w3.org/2000/svg"><defs><style>.bcls-1{fill:#c1c8d1}.bcls-2{fill:#e6e9ed}.bcls-3{fill:#7fcdee}.bcls-4{fill:#b2e1f5}.bcls-5{fill:#fff}.bcls-6{fill:#758190}.bcls-7{fill:none;stroke:#000;stroke-linejoin:round;stroke-width:2px}</style></defs><g data-name="Layer 13" id="bLayer_13"><path class="bcls-1" d="M4 2h24v56H4z"/><path class="bcls-2" d="M4 49.647C15.807 42.183 24 25.9 24 7c0-1.689-.069-3.357-.2-5H4z"/><path class="bcls-3" d="M4 34h24v10H4z"/><path class="bcls-4" d="M17.712 34H4v10h6.738a44.406 44.406 0 006.974-10z"/><path class="bcls-3" d="M4 20h24v10H4z"/><path class="bcls-4" d="M22.649 20H4v10h15.583a57.02 57.02 0 003.066-10z"/><path class="bcls-3" d="M4 6h24v10H4z"/><path class="bcls-4" d="M24 7c0-.336-.015-.666-.02-1H4v10h19.346A63.8 63.8 0 0024 7z"/><path class="bcls-1" d="M36 2h24v56H36z"/><path class="bcls-2" d="M36 49.647C47.807 42.183 56 25.9 56 7c0-1.689-.069-3.357-.2-5H36z"/><path class="bcls-3" d="M36 34h24v10H36z"/><path class="bcls-4" d="M49.712 34H36v10h6.738a44.406 44.406 0 006.974-10z"/><path class="bcls-3" d="M36 20h24v10H36z"/><path class="bcls-4" d="M54.649 20H36v10h15.583a57.02 57.02 0 003.066-10z"/><path class="bcls-3" d="M36 6h24v10H36z"/><path class="bcls-4" d="M56 7c0-.336-.015-.666-.02-1H36v10h19.346A63.8 63.8 0 0056 7z"/><path class="bcls-5" d="M12 58v-4a4 4 0 014-4 4 4 0 014 4v4zM44 58v-4a4 4 0 014-4 4 4 0 014 4v4z"/><path class="bcls-6" d="M28 10h8v4h-8zM28 24h8v4h-8zM28 38h8v4h-8zM2 58h60v4H2z"/><path class="bcls-7" d="M2 58h60v4H2zM4 58V2h24v56M36 58V2h24v56M4 6h24M4 16h24M4 20h24M4 30h24M4 34h24M4 44h24"/><path class="bcls-7" d="M12 58v-4a4 4 0 014-4 4 4 0 014 4v4M16 6v10M16 20v10M16 34v10M36 6h24M36 16h24M36 20h24M36 30h24M36 34h24M36 44h24M44 58v-4a4 4 0 014-4 4 4 0 014 4v4M48 6v10M48 20v10M48 34v10M28 42h8M28 38h8M28 28h8M28 24h8M28 14h8M28 10h8"/></g></svg><svg viewBox="0 0 64 64" width="64" height="64" id="hydrant" y="64" xmlns="http://www.w3.org/2000/svg"><defs><style>.ccls-1{fill:#54585e}.ccls-2{fill:#b65545}.ccls-3{fill:#a42a16}.ccls-4{fill:#a8b0bc}.ccls-5{fill:#c5776a}.ccls-6{fill:#fff}.ccls-7{fill:none;stroke:#000;stroke-linejoin:round;stroke-width:2px}</style></defs><g data-name="Layer 11" id="cLayer_11"><path class="ccls-1" d="M21 2h6v4h-6z"/><path class="ccls-2" d="M10 18A12 12 0 0122 6h4a12 12 0 0112 12H10z"/><path class="ccls-3" d="M29 18a16.9 16.9 0 00-4.95-11.95L24 6l-.05.05A16.9 16.9 0 0019 18h10z"/><path class="ccls-4" d="M2 34h4v8H2zM42 34h4v8h-4zM6 32h4v12H6zM38 32h4v12h-4z"/><path class="ccls-3" d="M6 18h36v6H6z"/><path class="ccls-2" d="M31.986 18H6v6h26.96a28.083 28.083 0 00-.974-6zM10 24h28v32H10z"/><path class="ccls-5" d="M10 54c13.242-3.358 23-14.844 23-28.5q0-.755-.04-1.5H10z"/><circle class="ccls-6" cx="24" cy="35" r="7"/><circle class="ccls-2" cx="24" cy="35" r="3"/><path class="ccls-6" d="M14 56v-8a2 2 0 012-2 2 2 0 012 2v8zM22 56v-8a2 2 0 012-2 2 2 0 012 2v8zM30 56v-8a2 2 0 012-2 2 2 0 012 2v8z"/><path class="ccls-4" d="M63 58h-5a2 2 0 01-2-2V41a5 5 0 00-5-5h-5v4h4a2 2 0 012 2v14a6 6 0 006 6h5z"/><path class="ccls-3" d="M7 56h34v6H7z"/><path class="ccls-7" d="M7 56h34v6H7zM6 18h36v6H6zM10 24v32M38 24v32M10 32H6v12h4M6 34H2v8h4M38 32h4v12h-4M42 34h4v8h-4M21 6V2h6v4"/><circle class="ccls-7" cx="24" cy="35" r="7"/><circle class="ccls-7" cx="24" cy="35" r="3"/><path class="ccls-7" d="M10 18A12 12 0 0122 6h4a12 12 0 0112 12M46 40h4a2 2 0 012 2v14a6 6 0 006 6h5"/><path class="ccls-7" d="M46 36h5a5 5 0 015 5v15a2 2 0 002 2h5M14 56v-8a2 2 0 012-2 2 2 0 012 2v8M22 56v-8a2 2 0 012-2 2 2 0 012 2v8M30 56v-8a2 2 0 012-2 2 2 0 012 2v8M19 18a16.9 16.9 0 014.95-11.95L24 6M29 18a16.9 16.9 0 00-4.95-11.95L24 6"/></g></svg></svg>